<?xml version="1.0" standalone="no"?>
<!DOCTYPE svg PUBLIC "-//W3C//DTD SVG 20010904//EN"
 "http://www.w3.org/TR/2001/REC-SVG-20010904/DTD/svg10.dtd">
<svg version="1.0" xmlns="http://www.w3.org/2000/svg"
 width="512.000000pt" height="512.000000pt" viewBox="0 0 512.000000 512.000000"
 preserveAspectRatio="xMidYMid meet">
<metadata>
Created by potrace 1.16, written by Peter Selinger 2001-2019
</metadata>
<g transform="translate(0.000000,512.000000) scale(0.100000,-0.100000)"
fill="#000000" stroke="none">
<path d="M203 4958 c-174 -172 -196 -198 -191 -231 3 -19 32 5 192 163 103
102 192 193 197 203 8 14 5 17 -17 17 -21 0 -60 -33 -181 -152z"/>
<path d="M303 4858 c-140 -139 -264 -265 -275 -281 -10 -15 -18 -37 -16 -50 3
-18 49 23 292 263 158 157 292 293 297 303 8 14 5 17 -17 17 -22 0 -75 -47
-281 -252z"/>
<path d="M402 4758 c-194 -194 -362 -365 -373 -381 -11 -15 -19 -37 -17 -50 4
-18 67 40 392 363 213 212 392 393 397 403 8 14 5 17 -18 17 -22 0 -89 -62
-381 -352z"/>
<path d="M502 4658 c-249 -249 -462 -465 -473 -481 -11 -15 -19 -37 -17 -50 4
-18 84 57 492 463 268 267 492 493 497 503 8 14 5 17 -18 17 -22 0 -104 -76
-481 -452z"/>
<path d="M602 4558 c-304 -304 -562 -565 -573 -581 -11 -15 -19 -37 -17 -50 4
-18 101 75 592 563 323 322 592 593 597 603 8 14 5 17 -18 17 -23 0 -118 -91
-581 -552z"/>
<path d="M702 4458 c-359 -359 -662 -665 -673 -681 -11 -15 -19 -37 -17 -50 4
-18 118 92 692 663 378 377 692 693 697 703 8 14 5 17 -18 17 -23 0 -133 -106
-681 -652z"/>
<path d="M802 4358 c-414 -414 -762 -765 -773 -781 -11 -15 -19 -37 -17 -50 4
-18 136 109 792 763 433 432 792 793 797 803 8 14 5 17 -18 17 -23 0 -148
-120 -781 -752z"/>
<path d="M902 4258 c-469 -469 -862 -865 -873 -881 -11 -15 -19 -37 -17 -50 4
-18 153 126 892 863 488 487 892 893 897 903 8 14 5 17 -18 17 -23 0 -162
-135 -881 -852z"/>
<path d="M1002 4158 c-524 -524 -962 -965 -973 -981 -11 -15 -19 -37 -17 -50
4 -18 170 144 992 963 543 542 992 993 997 1003 8 14 5 17 -18 17 -23 0 -177
-149 -981 -952z"/>
<path d="M1102 4058 c-579 -579 -1062 -1065 -1073 -1081 -11 -15 -19 -37 -17
-50 4 -18 188 161 1092 1063 598 597 1092 1093 1097 1103 8 14 5 17 -18 17
-23 0 -191 -164 -1081 -1052z"/>
<path d="M1202 3958 c-634 -634 -1162 -1165 -1173 -1181 -11 -15 -19 -37 -17
-50 4 -18 205 178 1192 1163 653 652 1192 1193 1197 1203 8 14 5 17 -18 17
-23 0 -206 -178 -1181 -1152z"/>
<path d="M1302 3858 c-689 -689 -1262 -1265 -1273 -1281 -11 -15 -19 -37 -17
-50 4 -18 222 195 1292 1263 708 707 1292 1293 1297 1303 8 14 5 17 -18 17
-23 0 -220 -193 -1281 -1252z"/>
<path d="M1402 3758 c-744 -744 -1362 -1365 -1373 -1381 -11 -15 -19 -37 -17
-50 4 -18 239 213 1392 1363 763 762 1392 1393 1397 1403 8 14 5 17 -18 17
-23 0 -235 -207 -1381 -1352z"/>
<path d="M1502 3658 c-799 -799 -1462 -1465 -1473 -1481 -11 -15 -19 -37 -17
-50 4 -18 257 230 1492 1463 818 817 1492 1493 1497 1503 8 14 5 17 -18 17
-23 0 -250 -222 -1481 -1452z"/>
<path d="M2645 4600 c-489 -489 -508 -509 -470 -504 37 6 78 44 528 493 269
267 493 494 498 504 8 14 5 17 -18 17 -23 0 -112 -84 -538 -510z"/>
<path d="M2846 4601 c-488 -487 -508 -509 -486 -521 22 -12 48 13 527 491 277
277 509 512 514 522 8 14 5 17 -18 17 -23 0 -112 -84 -537 -509z"/>
<path d="M3003 4558 c-522 -523 -551 -554 -537 -573 14 -18 43 9 570 535 305
305 560 563 565 573 8 14 5 17 -18 17 -23 0 -118 -90 -580 -552z"/>
<path d="M3128 4483 c-593 -592 -628 -630 -628 -663 0 -34 23 -12 646 610 355
355 650 653 655 663 8 14 5 17 -18 17 -23 0 -129 -102 -655 -627z"/>
<path d="M2812 3968 c-1096 -1097 -1141 -1143 -1111 -1146 31 -3 89 53 1161
1125 621 620 1134 1136 1139 1146 8 14 5 17 -18 17 -23 0 -204 -177 -1171
-1142z"/>
<path d="M3012 3968 c-1096 -1097 -1141 -1143 -1111 -1146 31 -3 89 53 1161
1125 621 620 1134 1136 1139 1146 8 14 5 17 -18 17 -23 0 -204 -177 -1171
-1142z"/>
<path d="M3212 3968 c-1096 -1097 -1141 -1143 -1111 -1146 31 -3 89 53 1161
1125 621 620 1134 1136 1139 1146 8 14 5 17 -18 17 -23 0 -204 -177 -1171
-1142z"/>
<path d="M3412 3968 c-1096 -1097 -1141 -1143 -1111 -1146 31 -3 89 53 1161
1125 621 620 1134 1136 1139 1146 8 14 5 17 -18 17 -23 0 -204 -177 -1171
-1142z"/>
<path d="M3612 3968 c-1096 -1097 -1141 -1143 -1111 -1146 31 -3 89 53 1161
1125 621 620 1134 1136 1139 1146 8 14 5 17 -18 17 -23 0 -204 -177 -1171
-1142z"/>
<path d="M3812 3968 c-1096 -1097 -1141 -1143 -1111 -1146 31 -3 89 53 1161
1125 621 620 1134 1136 1139 1146 8 14 5 17 -18 17 -23 0 -204 -177 -1171
-1142z"/>
<path d="M3992 3945 c-1076 -1074 -1121 -1120 -1090 -1123 30 -3 86 51 1105
1070 591 590 1083 1085 1094 1101 11 15 19 37 17 50 -4 18 -194 -167 -1126
-1098z"/>
<path d="M4092 3845 c-981 -979 -1021 -1020 -990 -1023 30 -3 81 46 1005 970
536 535 983 985 994 1001 11 15 19 37 17 50 -4 18 -176 -150 -1026 -998z"/>
<path d="M4192 3745 c-885 -883 -921 -920 -890 -923 30 -3 77 42 905 870 481
480 883 885 894 901 11 15 19 37 17 50 -4 18 -159 -132 -926 -898z"/>
<path d="M4292 3645 c-790 -788 -821 -820 -790 -823 30 -3 72 37 805 770 426
425 783 785 794 801 11 15 19 37 17 50 -4 18 -142 -115 -826 -798z"/>
<path d="M4392 3545 c-695 -692 -721 -720 -691 -723 31 -3 69 33 706 670 371
370 683 685 694 701 11 15 19 37 17 50 -4 18 -125 -98 -726 -698z"/>
<path d="M4492 3445 c-599 -597 -621 -620 -591 -623 31 -3 64 28 606 570 316
315 583 585 594 601 11 15 19 37 17 50 -4 18 -107 -81 -626 -598z"/>
<path d="M4592 3345 c-504 -502 -521 -520 -491 -523 31 -3 59 23 506 470 261
260 483 485 494 501 11 15 19 37 17 50 -4 18 -90 -63 -526 -498z"/>
<path d="M4685 3239 c-410 -409 -427 -427 -405 -439 22 -12 43 8 412 376 214
214 398 401 409 417 11 15 19 37 17 50 -4 18 -74 -47 -433 -404z"/>
<path d="M4742 3095 c-352 -350 -372 -371 -358 -390 14 -19 32 -3 356 320 188
187 350 352 361 368 11 15 19 37 17 50 -4 18 -64 -37 -376 -348z"/>
<path d="M4767 2920 c-325 -322 -347 -347 -347 -380 0 -34 8 -26 331 295 182
182 339 342 350 358 11 15 19 37 17 50 -4 18 -60 -33 -351 -323z"/>
<path d="M3596 1550 c-834 -833 -1522 -1523 -1527 -1532 -8 -15 -5 -18 18 -18
23 0 254 226 1511 1483 816 815 1492 1494 1503 1510 11 15 19 37 17 50 -4 18
-262 -235 -1522 -1493z"/>
<path d="M3696 1450 c-779 -778 -1422 -1423 -1427 -1432 -8 -15 -5 -18 18 -18
23 0 239 212 1411 1383 761 760 1392 1394 1403 1410 11 15 19 37 17 50 -4 18
-245 -218 -1422 -1393z"/>
<path d="M357 2312 c-286 -287 -347 -353 -347 -375 0 -23 3 -26 18 -18 9 5
164 157 343 338 290 291 327 332 332 366 3 20 5 37 4 37 -2 0 -159 -157 -350
-348z"/>
<path d="M3796 1350 c-724 -723 -1322 -1323 -1327 -1332 -8 -15 -5 -18 18 -18
23 0 225 197 1311 1283 706 705 1292 1294 1303 1310 11 15 19 37 17 50 -4 18
-227 -201 -1322 -1293z"/>
<path d="M357 2112 c-286 -287 -347 -353 -347 -375 0 -23 3 -26 18 -18 9 5
172 165 361 354 316 317 342 346 332 366 -7 11 -13 21 -14 21 -2 0 -159 -157
-350 -348z"/>
<path d="M3896 1250 c-669 -668 -1222 -1223 -1227 -1232 -8 -15 -5 -18 18 -18
23 0 210 183 1211 1182 651 651 1192 1195 1203 1211 11 15 19 37 17 50 -4 18
-210 -183 -1222 -1193z"/>
<path d="M397 1952 c-320 -321 -387 -393 -387 -415 0 -23 3 -26 18 -18 9 5
192 185 406 399 281 282 387 394 383 406 -4 9 -12 16 -19 16 -8 0 -188 -175
-401 -388z"/>
<path d="M2011 2166 c-95 -95 -132 -139 -128 -150 4 -9 12 -16 19 -16 7 0 81
68 163 150 149 150 150 150 115 150 -32 0 -48 -13 -169 -134z"/>
<path d="M2161 2116 c-131 -131 -182 -189 -178 -200 4 -9 12 -16 19 -16 7 0
103 90 213 200 197 197 199 200 165 200 -32 0 -51 -15 -219 -184z"/>
<path d="M2311 2066 c-168 -168 -232 -239 -228 -250 4 -9 12 -16 19 -16 7 0
126 113 263 250 245 245 249 250 215 250 -33 0 -53 -18 -269 -234z"/>
<path d="M2461 2016 c-204 -205 -282 -289 -278 -300 4 -9 12 -16 19 -16 7 0
148 135 313 300 292 292 299 300 265 300 -33 0 -55 -20 -319 -284z"/>
<path d="M2611 1966 c-241 -241 -332 -338 -328 -350 4 -9 12 -16 19 -16 7 0
171 158 363 350 340 340 349 350 315 350 -33 0 -58 -23 -369 -334z"/>
<path d="M2761 1916 c-278 -278 -382 -388 -378 -400 4 -9 12 -16 19 -16 7 0
193 180 413 400 388 388 399 400 365 400 -33 0 -60 -25 -419 -384z"/>
<path d="M2906 1861 c-415 -415 -438 -439 -426 -461 12 -22 32 -3 471 436 252
252 459 460 459 461 0 2 -15 3 -33 3 -29 0 -72 -40 -471 -439z"/>
<path d="M3024 1778 c-481 -482 -522 -526 -528 -563 -5 -38 20 -14 554 520
308 308 560 561 560 562 0 2 -15 3 -33 3 -29 0 -78 -46 -553 -522z"/>
<path d="M2600 1153 c-952 -953 -1141 -1147 -1123 -1151 13 -2 35 6 50 17 16
11 536 529 1158 1150 1083 1084 1129 1131 1095 1131 -33 0 -95 -60 -1180
-1147z"/>
<path d="M2800 1153 c-952 -953 -1141 -1147 -1123 -1151 13 -2 35 6 50 17 16
11 536 529 1158 1150 1083 1084 1129 1131 1095 1131 -33 0 -95 -60 -1180
-1147z"/>
<path d="M3000 1153 c-952 -953 -1141 -1147 -1123 -1151 13 -2 35 6 50 17 16
11 536 529 1158 1150 1083 1084 1129 1131 1095 1131 -33 0 -95 -60 -1180
-1147z"/>
<path d="M3996 1150 c-614 -613 -1122 -1123 -1127 -1132 -8 -15 -5 -18 18 -18
23 0 196 168 1111 1082 596 596 1092 1095 1103 1111 11 15 19 37 17 50 -4 18
-193 -166 -1122 -1093z"/>
<path d="M447 1802 c-363 -364 -437 -443 -437 -465 0 -23 3 -26 18 -18 9 5
215 208 456 449 426 427 465 472 414 472 -8 0 -210 -197 -451 -438z"/>
<path d="M497 1652 c-406 -406 -487 -492 -487 -515 0 -23 3 -26 18 -18 9 5
237 230 506 499 475 476 516 522 464 522 -8 0 -233 -220 -501 -488z"/>
<path d="M4096 1050 c-559 -558 -1022 -1023 -1027 -1033 -8 -14 -5 -17 18 -17
23 0 181 153 1011 983 541 540 992 994 1003 1010 11 15 19 37 17 50 -4 18
-175 -149 -1022 -993z"/>
<path d="M547 1502 c-448 -449 -537 -542 -537 -565 0 -23 3 -26 18 -18 9 5
260 253 556 549 525 526 566 572 514 572 -8 0 -255 -242 -551 -538z"/>
<path d="M597 1352 c-491 -492 -587 -592 -587 -615 0 -23 3 -26 17 -18 10 5
283 275 607 599 574 575 617 622 564 622 -8 0 -278 -265 -601 -588z"/>
<path d="M4196 950 c-504 -503 -922 -923 -927 -932 -8 -15 -5 -18 18 -18 23 0
167 139 911 882 486 486 892 895 903 911 11 15 19 37 17 50 -4 18 -158 -132
-922 -893z"/>
<path d="M647 1202 c-534 -534 -637 -642 -637 -665 0 -23 3 -26 18 -18 9 5
305 298 656 649 623 624 667 672 614 672 -8 0 -300 -287 -651 -638z"/>
<path d="M697 1052 c-577 -577 -687 -692 -687 -715 0 -23 3 -26 18 -18 9 5
327 320 706 699 672 673 717 722 664 722 -7 0 -323 -310 -701 -688z"/>
<path d="M4296 850 c-449 -448 -822 -823 -827 -832 -8 -15 -5 -18 18 -18 23 0
152 124 811 783 431 430 792 794 803 810 11 15 19 37 17 50 -4 18 -141 -114
-822 -793z"/>
<path d="M747 902 c-619 -620 -737 -742 -737 -765 0 -23 3 -26 18 -18 9 5 350
343 756 749 721 722 767 772 714 772 -7 0 -345 -332 -751 -738z"/>
<path d="M823 778 c-420 -420 -763 -767 -763 -771 0 -4 12 -7 27 -7 23 0 152
125 780 753 433 432 752 758 751 767 -2 8 -10 16 -18 18 -9 1 -340 -323 -777
-760z"/>
<path d="M4396 750 c-394 -393 -722 -723 -727 -732 -8 -15 -5 -18 18 -18 23 0
137 110 711 683 376 375 692 694 703 710 11 15 19 37 17 50 -4 18 -124 -97
-722 -693z"/>
<path d="M972 728 c-391 -393 -712 -717 -712 -721 0 -4 12 -7 27 -7 23 0 145
117 730 702 404 404 702 709 701 718 -2 8 -10 16 -18 18 -9 1 -319 -301 -728
-710z"/>
<path d="M1122 678 c-364 -365 -662 -667 -662 -671 0 -4 12 -7 27 -7 23 0 137
109 680 653 376 374 652 658 651 667 -2 8 -10 16 -18 18 -9 1 -298 -280 -678
-660z"/>
<path d="M4496 650 c-339 -338 -622 -623 -627 -632 -8 -15 -5 -18 18 -18 23 0
123 95 611 583 321 320 592 594 603 610 11 15 19 37 17 50 -4 18 -106 -80
-622 -593z"/>
<path d="M1273 628 c-337 -338 -613 -617 -613 -621 0 -4 12 -7 27 -7 23 0 129
102 630 602 347 346 602 609 601 618 -2 8 -10 16 -18 18 -9 1 -277 -259 -627
-610z"/>
<path d="M1423 577 c-310 -309 -563 -566 -563 -570 0 -4 12 -7 27 -7 23 0 122
94 580 553 318 316 552 558 551 567 -2 8 -10 16 -18 18 -9 1 -255 -238 -577
-561z"/>
<path d="M4596 550 c-284 -283 -522 -523 -527 -533 -8 -14 -5 -17 18 -17 23 0
108 81 511 483 266 265 492 494 503 510 11 15 19 37 17 50 -4 18 -89 -62 -522
-493z"/>
<path d="M1577 532 c-284 -284 -517 -521 -517 -525 0 -4 12 -7 27 -7 23 0 116
88 540 512 455 454 511 514 496 525 -9 7 -19 13 -23 13 -3 0 -238 -233 -523
-518z"/>
<path d="M2294 1023 c-25 -3 -122 -96 -535 -510 -421 -424 -500 -507 -482
-511 13 -2 35 6 50 17 38 27 1020 1011 1008 1009 -6 0 -24 -3 -41 -5z"/>
<path d="M4696 450 c-229 -228 -422 -423 -427 -432 -8 -15 -5 -18 18 -18 22 0
93 66 411 383 211 210 392 394 403 410 11 15 19 37 17 50 -4 18 -72 -45 -422
-393z"/>
<path d="M4796 350 c-174 -173 -322 -323 -327 -332 -8 -15 -5 -18 17 -18 23 0
80 52 312 282 156 156 293 295 303 311 11 15 19 37 17 50 -4 18 -54 -28 -322
-293z"/>
<path d="M4896 250 c-119 -118 -222 -223 -227 -232 -8 -15 -5 -18 17 -18 21 0
65 37 211 183 205 202 226 227 221 260 -3 19 -37 -11 -222 -193z"/>
<path d="M4996 150 c-136 -133 -149 -150 -111 -150 18 0 49 23 111 82 102 98
127 130 122 161 -3 19 -19 7 -122 -93z"/>
</g>
</svg>
